<svg id="Layer_1" data-name="Layer 1" xmlns="http://www.w3.org/2000/svg" viewBox="0 0 4280.31 1417.32"><defs><style>.cls-1{fill:none;}.cls-2{fill:#fff;}</style></defs><title>Logo White With Text</title><g id="_Group_" data-name="&lt;Group&gt;"><path id="_Path_" data-name="&lt;Path&gt;" class="cls-1" d="M2857,1036.15q-15.9-14.58-40.38-23.17T2758,1004.4q-32.19,0-56.37,8.59t-41,23.07a108.15,108.15,0,0,0-26.38,33.55,121.83,121.83,0,0,0-12.2,40.25h268.23a124.32,124.32,0,0,0-9.39-40A95.45,95.45,0,0,0,2857,1036.15Z"/><polygon id="_Path_2" data-name="&lt;Path&gt;" class="cls-1" points="2089.98 1166.58 2089.98 1000 1927.6 1166.58 2089.98 1166.58"/><path id="_Path_3" data-name="&lt;Path&gt;" class="cls-1" d="M2500.41,1052.87a79.07,79.07,0,0,0-20-21.29,105.15,105.15,0,0,0-26.58-13.9,151.63,151.63,0,0,0-32.19-7.5,295,295,0,0,0-37-2.2H2268.34v228.89h116.33a254.12,254.12,0,0,0,53.77-5.29q24.38-5.3,41.87-18.39T2507.6,1178q9.79-22.09,9.8-55.67,0-22.39-4.39-39.58A100.7,100.7,0,0,0,2500.41,1052.87Z"/><path id="_Compound_Path_" data-name="&lt;Compound Path&gt;" class="cls-1" d="M4109.64,874H1417.32v496H4109.64c67.16,0,121.8-54.19,121.8-120.8V994.84C4231.45,928.23,4176.81,874,4109.64,874ZM1836.53,1259.65h-27.16L1570.89,1018v241.67h-25V985.22h27.56L1812,1227.69V985.22h24.57Zm348.33-70.3h-70.3v70.3H2090v-70.3H1894.85v-22l177.56-182.15h42.14v181.35h70.3Zm352.63-20.27a122.19,122.19,0,0,1-15.49,35.65,100.53,100.53,0,0,1-24.27,25.76,125,125,0,0,1-31.74,17,186.11,186.11,0,0,1-37.95,9.29,308,308,0,0,1-43,2.9H2243.37V985.22h141.21a282.38,282.38,0,0,1,62.71,6.59q29,6.59,50.24,22.47t33.34,42.24q12.1,26.36,12.09,65.71Q2543,1148.6,2537.48,1169.07Zm377.38-37.45h-292.8q2.19,25.57,12.8,46.14a99.82,99.82,0,0,0,30.08,35q19.47,14.38,48,22.07t66.46,7.69a249,249,0,0,0,32.77-2.2,303.1,303.1,0,0,0,31.79-5.89,247.27,247.27,0,0,0,27.78-8.39,115.78,115.78,0,0,0,20.59-9.69v29q-16.78,5.2-31.16,8.89t-28.36,6q-14,2.29-28.45,3.4t-31.86,1.1q-40.35,0-72.9-9.79t-55.42-28.06a124.64,124.64,0,0,1-35.26-44.24q-12.38-26-12.38-58.32,0-31.35,11.88-57.52a131.59,131.59,0,0,1,33.26-44.94q21.36-18.77,51.13-29.16t65.71-10.39q37.36,0,66.51,10t49.13,28.56a120.86,120.86,0,0,1,30.36,45q10.39,26.47,10.39,59.62Zm312,85.38a61.64,61.64,0,0,1-15.69,19.77,88,88,0,0,1-23.17,13.78,161,161,0,0,1-28.36,8.69,246.11,246.11,0,0,1-31.16,4.49q-16.06,1.3-31.65,1.3-35.74,0-64.8-5.19a377,377,0,0,1-55.43-14.18v-30.56a179.69,179.69,0,0,0,57.43,22.17,326.8,326.8,0,0,0,63.61,6,314.58,314.58,0,0,0,43.54-2.8q20-2.8,34.55-8.89t22.66-15.88q8.11-9.78,8.1-24a32.18,32.18,0,0,0-6.5-20,58.65,58.65,0,0,0-17.58-15.08,138.15,138.15,0,0,0-26-11.48q-14.86-5-31.45-9.29t-34.25-8.39q-17.7-4.09-34.26-8.89a329.55,329.55,0,0,1-31.46-10.79,120.3,120.3,0,0,1-26-14.08,65.88,65.88,0,0,1-17.58-18.67q-6.48-10.59-6.48-24.57a55.36,55.36,0,0,1,5.19-24.47,56.63,56.63,0,0,1,14.29-18.47,83.29,83.29,0,0,1,21.26-13.08,144.41,144.41,0,0,1,26.06-8.39,230.67,230.67,0,0,1,28.87-4.49q15-1.39,29.56-1.4,16,0,30.25,1.4t27.56,3.69q13.3,2.29,26,5.29t25.67,6.39v28.76q-7.79-3.79-18-8.09a171,171,0,0,0-23.29-7.69,260.54,260.54,0,0,0-65.88-8,296.51,296.51,0,0,0-43.08,2.8q-18.9,2.8-32,8.69t-20,14.88a34.1,34.1,0,0,0-6.9,21.37,27.51,27.51,0,0,0,6.5,18.18,59.19,59.19,0,0,0,17.59,13.78,159.86,159.86,0,0,0,26,10.89q14.89,4.9,31.59,9.19t34.38,8.69q17.7,4.39,34.38,9.49a326.12,326.12,0,0,1,31.59,11.38,120.74,120.74,0,0,1,26,14.68,68.3,68.3,0,0,1,17.59,19.17q6.5,10.79,6.5,25Q3232.62,1205.53,3226.83,1217Zm108.05,42.64h-25V985.22h25Zm385.08-16q-14.77,5.2-29.87,9.19t-31.16,6.69q-16.06,2.7-33.34,4.09t-36.26,1.4q-38.74,0-71.9-8.69T3460,1230a125.18,125.18,0,0,1-38-44.44q-13.78-26.77-13.78-62.91,0-24.16,6.39-44a123.23,123.23,0,0,1,18.08-35.75,124.83,124.83,0,0,1,28.15-27.66,162.22,162.22,0,0,1,36.57-19.47,224.68,224.68,0,0,1,43.23-11.58,291.2,291.2,0,0,1,48.33-3.89,307.55,307.55,0,0,1,35.35,1.9,280.51,280.51,0,0,1,31.36,5.39,292.66,292.66,0,0,1,29.16,8.39q14.17,4.9,28.56,10.89v30.36a269.71,269.71,0,0,0-24.29-13.58,200.83,200.83,0,0,0-27.78-11.18,221,221,0,0,0-32-7.59,227.23,227.23,0,0,0-36.69-2.8q-40,0-69.75,8.39t-49.56,24a98.31,98.31,0,0,0-29.68,37.95q-9.89,22.37-9.89,50.33a118.51,118.51,0,0,0,9.69,48.23,100.89,100.89,0,0,0,29.38,38q19.7,16,49.27,25t69.37,9q15.58,0,30.88-1.2t28.88-3.1q13.6-1.9,24.78-4.19t19-4.69V1146.4H3583.35V1123H3720Zm370.3,16h-25V1078.5q0-22.77-6.1-37.45t-17.36-23.27q-11.29-8.58-27.47-12a177.5,177.5,0,0,0-36.35-3.4,186.08,186.08,0,0,0-45.85,5.69,277,277,0,0,0-42.43,14.38,271.73,271.73,0,0,0-36.75,19.27,256.4,256.4,0,0,0-28.36,20.37v197.53h-25V985.22h25v48.13q14-8.79,30.85-18.47a319.67,319.67,0,0,1,36.35-17.78,268.2,268.2,0,0,1,41.65-13.28,204.23,204.23,0,0,1,46.74-5.19q27.77,0,48.44,6.69t34.35,19a76.88,76.88,0,0,1,20.46,29.76q6.8,17.48,6.79,39Z"/><polygon id="_Path_4" data-name="&lt;Path&gt;" class="cls-2" points="1811.96 1227.69 1573.49 985.22 1545.92 985.22 1545.92 1259.65 1570.89 1259.65 1570.89 1017.98 1809.36 1259.65 1836.53 1259.65 1836.53 985.22 1811.96 985.22 1811.96 1227.69"/><path id="_Compound_Path_2" data-name="&lt;Compound Path&gt;" class="cls-2" d="M2114.55,985.22h-42.14l-177.56,182.15v22H2090v70.3h24.57v-70.3h70.3v-22.77h-70.3ZM2090,1166.58H1927.6L2090,1000Z"/><path id="_Compound_Path_3" data-name="&lt;Compound Path&gt;" class="cls-2" d="M2497.53,1014.28q-21.29-15.88-50.24-22.47a282.38,282.38,0,0,0-62.71-6.59H2243.37v274.43H2385a308,308,0,0,0,43-2.9,186.11,186.11,0,0,0,37.95-9.29,125,125,0,0,0,31.74-17,100.53,100.53,0,0,0,24.27-25.76,122.19,122.19,0,0,0,15.49-35.65q5.48-20.48,5.48-46.84,0-39.35-12.09-65.71T2497.53,1014.28ZM2507.6,1178q-9.79,22.1-27.29,35.19t-41.87,18.39a254.12,254.12,0,0,1-53.77,5.29H2268.34V1008h116.33a295,295,0,0,1,37,2.2,151.63,151.63,0,0,1,32.19,7.5,105.15,105.15,0,0,1,26.58,13.9,79.07,79.07,0,0,1,20,21.29,100.7,100.7,0,0,1,12.6,29.89q4.4,17.19,4.39,39.58Q2517.4,1155.91,2507.6,1178Z"/><path id="_Compound_Path_4" data-name="&lt;Compound Path&gt;" class="cls-2" d="M2874.11,1020.77q-20-18.57-49.13-28.56t-66.51-10q-36,0-65.71,10.39t-51.13,29.16a131.59,131.59,0,0,0-33.26,44.94q-11.87,26.17-11.88,57.52,0,32.36,12.38,58.32a124.64,124.64,0,0,0,35.26,44.24q22.86,18.28,55.42,28.06t72.9,9.79q17.38,0,31.86-1.1t28.45-3.4q14-2.29,28.36-6t31.16-8.89v-29a115.78,115.78,0,0,1-20.59,9.69,247.27,247.27,0,0,1-27.78,8.39,303.1,303.1,0,0,1-31.79,5.89,249,249,0,0,1-32.77,2.2q-38,0-66.46-7.69t-48-22.07a99.82,99.82,0,0,1-30.08-35q-10.6-20.57-12.8-46.14h292.8v-6.19q0-33.15-10.39-59.62A120.86,120.86,0,0,0,2874.11,1020.77Zm-252.06,89.08a121.83,121.83,0,0,1,12.2-40.25,108.15,108.15,0,0,1,26.38-33.55q16.78-14.48,41-23.07t56.37-8.59q34.18,0,58.66,8.59t40.38,23.17a95.45,95.45,0,0,1,23.89,33.65,124.32,124.32,0,0,1,9.39,40Z"/><path id="_Path_5" data-name="&lt;Path&gt;" class="cls-2" d="M3208.53,1146a120.74,120.74,0,0,0-26-14.68,326.12,326.12,0,0,0-31.59-11.38q-16.71-5.09-34.38-9.49t-34.38-8.69q-16.68-4.3-31.59-9.19a159.86,159.86,0,0,1-26-10.89,59.19,59.19,0,0,1-17.59-13.78,27.51,27.51,0,0,1-6.5-18.18,34.1,34.1,0,0,1,6.9-21.37q6.89-9,20-14.88t32-8.69a296.51,296.51,0,0,1,43.08-2.8,260.54,260.54,0,0,1,65.88,8,171,171,0,0,1,23.29,7.69q10.19,4.3,18,8.09V997q-13-3.4-25.67-6.39t-26-5.29q-13.27-2.29-27.56-3.69t-30.25-1.4q-14.59,0-29.56,1.4a230.67,230.67,0,0,0-28.87,4.49,144.41,144.41,0,0,0-26.06,8.39,83.29,83.29,0,0,0-21.26,13.08,56.63,56.63,0,0,0-14.29,18.47,55.36,55.36,0,0,0-5.19,24.47q0,14,6.48,24.57a65.88,65.88,0,0,0,17.58,18.67,120.3,120.3,0,0,0,26,14.08,329.55,329.55,0,0,0,31.46,10.79q16.57,4.79,34.26,8.89t34.25,8.39q16.57,4.3,31.45,9.29a138.15,138.15,0,0,1,26,11.48,58.65,58.65,0,0,1,17.58,15.08,32.18,32.18,0,0,1,6.5,20q0,14.18-8.1,24t-22.66,15.88q-14.59,6.1-34.55,8.89a314.58,314.58,0,0,1-43.54,2.8,326.8,326.8,0,0,1-63.61-6,179.69,179.69,0,0,1-57.43-22.17v30.56a377,377,0,0,0,55.43,14.18q29,5.2,64.8,5.19,15.58,0,31.65-1.3a246.11,246.11,0,0,0,31.16-4.49,161,161,0,0,0,28.36-8.69,88,88,0,0,0,23.17-13.78,61.64,61.64,0,0,0,15.69-19.77q5.78-11.49,5.79-26.86,0-14.18-6.5-25A68.3,68.3,0,0,0,3208.53,1146Z"/><rect id="_Path_6" data-name="&lt;Path&gt;" class="cls-2" x="3309.92" y="985.22" width="24.97" height="274.43"/><path id="_Path_7" data-name="&lt;Path&gt;" class="cls-2" d="M3583.35,1146.4H3695v83.29q-7.79,2.4-19,4.69t-24.78,4.19q-13.6,1.9-28.88,3.1t-30.88,1.2q-39.78,0-69.37-9t-49.27-25a100.89,100.89,0,0,1-29.38-38,118.51,118.51,0,0,1-9.69-48.23q0-28,9.89-50.33a98.31,98.31,0,0,1,29.68-37.95q19.77-15.58,49.56-24t69.75-8.39a227.23,227.23,0,0,1,36.69,2.8,221,221,0,0,1,32,7.59,200.83,200.83,0,0,1,27.78,11.18,269.71,269.71,0,0,1,24.29,13.58v-30.36q-14.38-6-28.56-10.89a292.66,292.66,0,0,0-29.16-8.39,280.51,280.51,0,0,0-31.36-5.39,307.55,307.55,0,0,0-35.35-1.9,291.2,291.2,0,0,0-48.33,3.89,224.68,224.68,0,0,0-43.23,11.58,162.22,162.22,0,0,0-36.57,19.47,124.83,124.83,0,0,0-28.15,27.66,123.23,123.23,0,0,0-18.08,35.75q-6.38,19.88-6.39,44,0,36.15,13.78,62.91a125.18,125.18,0,0,0,38,44.44q24.29,17.68,57.43,26.36t71.9,8.69q19,0,36.26-1.4t33.34-4.09q16.09-2.7,31.16-6.69t29.87-9.19V1123H3583.35Z"/><path id="_Path_8" data-name="&lt;Path&gt;" class="cls-2" d="M4063,1004.3q-13.69-12.28-34.35-19t-48.44-6.69a204.23,204.23,0,0,0-46.74,5.19,268.2,268.2,0,0,0-41.65,13.28,319.67,319.67,0,0,0-36.35,17.78q-16.87,9.69-30.85,18.47V985.22h-25v274.43h25V1062.12a256.4,256.4,0,0,1,28.36-20.37,271.73,271.73,0,0,1,36.75-19.27,277,277,0,0,1,42.43-14.38,186.08,186.08,0,0,1,45.85-5.69,177.5,177.5,0,0,1,36.35,3.4q16.18,3.4,27.47,12t17.36,23.27q6.11,14.68,6.1,37.45v181.15h25V1073.1q0-21.57-6.79-39A76.88,76.88,0,0,0,4063,1004.3Z"/><path id="_Path_9" data-name="&lt;Path&gt;" class="cls-2" d="M236.22,590.55V236.22H708.66c220.14,0,405.11,150.56,457.55,354.33h241.13C1351.08,255.42,1059.79,0,708.66,0H0V590.55H236.22Z"/><path id="_Path_10" data-name="&lt;Path&gt;" class="cls-2" d="M477.43,474.38V710.6h0c0,130.46,105.76,236.22,236.22,236.22H949.87V710.6h0c0-130.46-105.76-236.22-236.22-236.22Z"/><path id="_Compound_Path_5" data-name="&lt;Compound Path&gt;" class="cls-2" d="M4109.64,826.77H1181.1V1181.1H708.66c-220.14,0-405.11-150.56-457.55-354.33H10c56.26,335.13,347.56,590.55,698.68,590.55h3401c93.44,0,169.46-75.4,169.46-168.07V994.84C4279.11,902.17,4203.09,826.77,4109.64,826.77Zm121.8,422.48c0,66.61-54.64,120.8-121.8,120.8H1417.32V874H4109.64c67.16,0,121.8,54.19,121.8,120.8Z"/></g></svg>